<?xml version="1.0" encoding="UTF-8"?>
<svg xmlns="http://www.w3.org/2000/svg" xmlns:xlink="http://www.w3.org/1999/xlink" width="16px" height="16px" viewBox="0 0 16 16" version="1.1">
<g id="surface1">
<path style=" stroke:none;fill-rule:evenodd;fill:rgb(36.078431%,36.078431%,42.352941%);fill-opacity:1;" d="M 10.011719 4.449219 C 10.015625 4.59375 10.046875 4.625 10.085938 4.523438 C 10.121094 4.433594 10.117188 4.324219 10.074219 4.285156 C 10.035156 4.242188 10.003906 4.316406 10.011719 4.449219 M 2.550781 15.894531 C 2.496094 15.984375 2.515625 16.003906 2.605469 15.949219 C 2.683594 15.898438 2.75 15.835938 2.75 15.804688 C 2.75 15.699219 2.640625 15.75 2.550781 15.894531 "/>
<path style=" stroke:none;fill-rule:evenodd;fill:rgb(36.078431%,39.215686%,42.352941%);fill-opacity:1;" d="M 7.5 1.109375 L 7.5 2.21875 L 7.125 2.375 C 6.207031 2.753906 5.722656 3.839844 6 4.878906 C 6.136719 5.375 6.109375 5.507812 5.625 6.800781 C 4.78125 9.058594 4.816406 9 4.316406 9 C 3.929688 9 3.875 9.039062 3.875 9.3125 C 3.875 9.5625 3.9375 9.625 4.1875 9.625 C 4.359375 9.625 4.5 9.648438 4.5 9.679688 C 4.5 9.710938 4.050781 11.085938 3.5 12.734375 C 2.949219 14.382812 2.5 15.769531 2.5 15.8125 C 2.5 16.1875 3.644531 14.328125 5.25 11.34375 L 6.175781 9.625 L 7.609375 9.625 L 7.648438 10.09375 C 7.679688 10.46875 7.742188 10.570312 7.96875 10.601562 C 8.222656 10.636719 8.25 10.589844 8.25 10.132812 L 8.25 9.625 L 9.851562 9.625 L 10.285156 10.40625 C 10.523438 10.835938 10.933594 11.582031 11.195312 12.0625 C 11.636719 12.878906 13.230469 15.625 13.332031 15.738281 C 13.355469 15.769531 13.402344 15.761719 13.441406 15.726562 C 13.492188 15.675781 11.882812 10.628906 11.5625 9.84375 C 11.492188 9.667969 11.539062 9.625 11.800781 9.625 C 12.0625 9.625 12.125 9.566406 12.125 9.320312 C 12.125 9.058594 12.058594 9.007812 11.671875 8.976562 C 11.285156 8.941406 11.199219 8.875 11.058594 8.5 C 10.972656 8.257812 10.667969 7.453125 10.382812 6.710938 C 9.90625 5.464844 9.875 5.3125 9.980469 4.726562 C 10.167969 3.707031 9.800781 2.894531 8.945312 2.433594 L 8.5 2.191406 L 8.5 0 L 7.5 0 L 7.5 1.109375 M 7.238281 3.082031 C 6.78125 3.367188 6.59375 3.714844 6.601562 4.28125 C 6.613281 5.117188 7.121094 5.640625 7.945312 5.664062 C 8.769531 5.6875 9.375 5.0625 9.375 4.1875 C 9.375 3.519531 8.714844 2.875 8.042969 2.878906 C 7.777344 2.878906 7.417969 2.972656 7.238281 3.082031 M 7.59375 3.507812 C 7.019531 3.84375 7.042969 4.636719 7.632812 4.941406 C 8.050781 5.15625 8.535156 5.023438 8.742188 4.640625 C 8.945312 4.257812 8.902344 4.015625 8.566406 3.683594 C 8.242188 3.355469 7.949219 3.304688 7.59375 3.507812 M 7.570312 3.867188 C 7.160156 4.320312 7.707031 5.042969 8.242188 4.753906 C 8.769531 4.472656 8.589844 3.625 8 3.625 C 7.882812 3.625 7.691406 3.734375 7.570312 3.867188 M 7.601562 6.90625 C 7.226562 7.628906 6.625 8.886719 6.625 8.949219 C 6.625 8.976562 6.847656 9 7.117188 9 C 7.558594 9 7.613281 8.964844 7.648438 8.65625 C 7.675781 8.410156 7.765625 8.300781 7.96875 8.273438 C 8.207031 8.238281 8.25 8.289062 8.25 8.617188 C 8.25 8.996094 8.257812 9 8.886719 9 C 9.234375 9 9.503906 8.957031 9.480469 8.90625 C 9.0625 7.96875 8.152344 6.375 8.035156 6.375 C 7.949219 6.375 7.753906 6.613281 7.601562 6.90625 "/>
</g>
</svg>
