<?xml version="1.0" encoding="UTF-8"?>
<svg xmlns="http://www.w3.org/2000/svg" xmlns:xlink="http://www.w3.org/1999/xlink" width="16px" height="16px" viewBox="0 0 16 16" version="1.1">
<g id="surface1">
<path style=" stroke:none;fill-rule:nonzero;fill:rgb(36.078431%,39.215686%,42.352941%);fill-opacity:1;" d="M 7.71875 3.835938 C 4.820312 3.921875 2.125 5.660156 0.84375 8.257812 C 0.367188 9.230469 0.125 10.101562 0.0273438 11.183594 C -0.0351562 11.90625 0.0078125 12.082031 0.277344 12.15625 C 0.429688 12.199219 15.570312 12.199219 15.722656 12.15625 C 15.898438 12.105469 15.976562 12 15.992188 11.78125 C 16.011719 11.542969 15.949219 10.867188 15.875 10.425781 C 15.585938 8.785156 14.742188 7.207031 13.519531 6.039062 C 11.953125 4.550781 9.902344 3.769531 7.71875 3.835938 Z M 8.742188 4.5625 C 10.648438 4.765625 12.398438 5.707031 13.609375 7.171875 C 14.367188 8.089844 14.917969 9.242188 15.136719 10.359375 C 15.207031 10.710938 15.28125 11.265625 15.28125 11.421875 C 15.28125 11.460938 14.535156 11.46875 8 11.46875 L 0.71875 11.46875 L 0.71875 11.398438 C 0.71875 11.25 0.808594 10.597656 0.875 10.28125 C 1.085938 9.261719 1.644531 8.089844 2.320312 7.25 C 3.515625 5.773438 5.242188 4.8125 7.125 4.578125 C 7.53125 4.527344 8.339844 4.523438 8.742188 4.5625 Z M 8.742188 4.5625 "/>
</g>
</svg>
